<?xml version="1.0" encoding="utf-8"?>
<!-- Generator: Adobe Illustrator 25.3.1, SVG Export Plug-In . SVG Version: 6.00 Build 0)  -->
<svg version="1.1" id="圖層_1" xmlns="http://www.w3.org/2000/svg" xmlns:xlink="http://www.w3.org/1999/xlink" x="0px" y="0px"
	 viewBox="0 0 40 22.8" style="enable-background:new 0 0 40 22.8;" xml:space="preserve">
<style type="text/css">
	.st0{fill:#ED4C7C;}
</style>
<g id="组_773" transform="translate(14.035 105.14) rotate(180)">
	<path id="路径_21" class="st0" d="M-6,105.1c-0.7,0-1.5-0.3-2-0.8l-17.2-17.2c-1.1-1.1-1.1-2.8-0.1-4c1.1-1.1,2.8-1.1,4-0.1
		c0,0,0,0,0.1,0.1L-6,98.4L9.2,83.2c1.1-1.1,2.8-1.1,4-0.1c1.1,1.1,1.1,2.8,0.1,4c0,0,0,0-0.1,0.1L-4,104.3
		C-4.5,104.8-5.2,105.1-6,105.1z"/>
</g>
</svg>
