<?xml version="1.0" encoding="utf-8"?>
<!-- Generator: Adobe Illustrator 25.3.1, SVG Export Plug-In . SVG Version: 6.00 Build 0)  -->
<svg version="1.1" id="圖層_1" xmlns="http://www.w3.org/2000/svg" xmlns:xlink="http://www.w3.org/1999/xlink" x="0px" y="0px"
	 viewBox="0 0 40 22.8" style="enable-background:new 0 0 40 22.8;" xml:space="preserve">
<style type="text/css">
	.st0{fill:#ED4C7C;}
</style>
<g id="组_772" transform="translate(-0.001 -97.141)">
	<path id="路径_21" class="st0" d="M20,119.9c-0.7,0-1.5-0.3-2-0.8L0.9,101.9c-1.1-1.1-1.1-2.8-0.1-4s2.8-1.1,4-0.1
		c0,0,0,0,0.1,0.1L20,113.2L35.2,98c1.1-1.1,2.8-1.1,4-0.1c1.1,1.1,1.1,2.8,0.1,4c0,0,0,0-0.1,0.1L22,119.1
		C21.5,119.6,20.7,119.9,20,119.9z"/>
</g>
</svg>
