<svg id="组_749" data-name="组 749" xmlns="http://www.w3.org/2000/svg" width="24.432" height="24.432" viewBox="0 0 24.432 24.432">
  <g id="组_46" data-name="组 46">
    <g id="组_45" data-name="组 45">
      <path id="路径_22" data-name="路径 22" d="M12.216,0A12.216,12.216,0,1,0,24.432,12.216,12.229,12.229,0,0,0,12.216,0Zm0,22.54A10.324,10.324,0,1,1,22.539,12.216,10.336,10.336,0,0,1,12.216,22.54Z" fill="#fff"/>
    </g>
  </g>
  <g id="组_48" data-name="组 48" transform="translate(6.538 6.453)">
    <g id="组_47" data-name="组 47">
      <path id="路径_23" data-name="路径 23" d="M147.431,139.969h-3.785v-3.785a.946.946,0,1,0-1.892,0v3.785h-3.785a.946.946,0,0,0,0,1.893h3.785v3.785a.946.946,0,1,0,1.892,0v-3.785h3.785a.946.946,0,0,0,0-1.893Z" transform="translate(-137.022 -135.238)" fill="#fff"/>
    </g>
  </g>
</svg>
