<svg id="组_788" data-name="组 788" xmlns="http://www.w3.org/2000/svg" width="34" height="34" viewBox="0 0 34 34">
  <path id="路径_385" data-name="路径 385" d="M14.521,210.125H1.062a1.063,1.063,0,0,1,0-2.125H14.521a1.063,1.063,0,0,1,0,2.125Z" transform="translate(0 -194.187)" fill="#fff"/>
  <path id="路径_386" data-name="路径 386" d="M123.734,140.736a1.063,1.063,0,0,1-.751-1.815l4.562-4.562-4.562-4.56a1.063,1.063,0,0,1,1.5-1.5l5.313,5.313a1.063,1.063,0,0,1,0,1.5l-5.313,5.313A1.061,1.061,0,0,1,123.734,140.736Z" transform="translate(-114.525 -119.486)" fill="#fff"/>
  <path id="路径_387" data-name="路径 387" d="M301.5,34.078a2.836,2.836,0,0,1-2.833-2.833V5.744a2.851,2.851,0,0,1,1.918-2.69L309.1.216a2.863,2.863,0,0,1,3.737,2.695v25.5a2.852,2.852,0,0,1-1.917,2.689L302.4,33.939A2.965,2.965,0,0,1,301.5,34.078ZM310,2.2a.832.832,0,0,0-.253.037l-8.476,2.826a.731.731,0,0,0-.479.679v25.5a.746.746,0,0,0,.962.672l8.476-2.826a.733.733,0,0,0,.479-.679V2.911A.709.709,0,0,0,310,2.2Z" transform="translate(-278.835 -0.078)" fill="#fff"/>
  <path id="路径_388" data-name="路径 388" d="M171.731,7.083a1.063,1.063,0,0,1-1.063-1.062V3.9a3.9,3.9,0,0,1,3.9-3.9H190.5a1.062,1.062,0,1,1,0,2.125H174.564A1.773,1.773,0,0,0,172.793,3.9V6.021A1.063,1.063,0,0,1,171.731,7.083Z" transform="translate(-159.335)" fill="#fff"/>
  <path id="路径_389" data-name="路径 389" d="M180.23,348.415h-5.667a3.9,3.9,0,0,1-3.9-3.9v-2.125a1.063,1.063,0,0,1,2.125,0v2.125a1.773,1.773,0,0,0,1.771,1.771h5.667a1.062,1.062,0,1,1,0,2.125Z" transform="translate(-159.335 -318.665)" fill="#fff"/>
</svg>
