<?xml version="1.0" encoding="utf-8"?>
<!-- Generator: Adobe Illustrator 25.3.1, SVG Export Plug-In . SVG Version: 6.00 Build 0)  -->
<svg version="1.1" id="圖層_1" xmlns="http://www.w3.org/2000/svg" xmlns:xlink="http://www.w3.org/1999/xlink" x="0px" y="0px"
	 viewBox="0 0 40 40" style="enable-background:new 0 0 40 40;" xml:space="preserve">
<style type="text/css">
	.st0{fill:#FFFFFF;}
</style>
<path id="路径_440" class="st0" d="M19.2,8.7c-1.5-0.8-3.3-0.3-4.2,1.1c-0.3,0.5-0.4,1-0.4,1.5v7.8c0,1.7,1.3,3.1,3,3.1
	c0.5,0,1.1-0.1,1.6-0.4l6.7-3.9c1.5-0.9,2-2.7,1.1-4.2c-0.3-0.5-0.6-0.8-1.1-1.1L19.2,8.7z M17.7,19v-7.5l6.5,3.8L17.7,19z
	 M36.9,16.3V6.3c0-1.7-1.4-3.1-3.1-3.1H6.3c-1.7,0-3.1,1.4-3.1,3.1v18c0,1.7,1.4,3.1,3.1,3.1h27.5c1.7,0,3.1-1.4,3.1-3.1
	c0-0.9,0.7-1.6,1.6-1.6s1.6,0.7,1.6,1.6c0,3.5-2.8,6.2-6.3,6.3H6.3c-3.5,0-6.2-2.8-6.3-6.3v-18C0,2.8,2.8,0,6.3,0h27.5
	C37.2,0,40,2.8,40,6.3v10.1c0,0.9-0.7,1.6-1.6,1.6S36.9,17.2,36.9,16.3L36.9,16.3z M40,36.8c0,0.9-0.7,1.6-1.6,1.6c0,0,0,0,0,0H18.4
	c-0.9,0-1.6-0.7-1.6-1.6s0.7-1.6,1.6-1.6h20.1C39.3,35.2,40,35.9,40,36.8L40,36.8z M13.7,36.9c0,1.7-1.4,3.1-3.1,3.1
	c-1.1,0-2.2-0.6-2.7-1.6H1.6c-0.9,0-1.6-0.7-1.6-1.6s0.7-1.6,1.6-1.6h6.3c0.9-1.5,2.8-1.9,4.3-1C13.1,34.8,13.7,35.8,13.7,36.9
	L13.7,36.9z"/>
</svg>
