<?xml version="1.0" encoding="utf-8"?>
<!-- Generator: Adobe Illustrator 25.3.1, SVG Export Plug-In . SVG Version: 6.00 Build 0)  -->
<svg version="1.1" id="组_761" xmlns="http://www.w3.org/2000/svg" xmlns:xlink="http://www.w3.org/1999/xlink" x="0px" y="0px"
	 viewBox="0 0 40 42.3" style="enable-background:new 0 0 40 42.3;" xml:space="preserve">
<style type="text/css">
	.st0{fill:#FFFFFF;}
</style>
<path id="路径_6" class="st0" d="M5.8,9.5c3.1,0.1,6.2,0.9,9,2.4c0.6,0.3,1.3,0.1,1.5-0.5c0,0,0,0,0-0.1c0.3-0.6,0.1-1.3-0.5-1.7
	C12.8,8,9.3,7.1,5.9,7h0C5.2,7,4.6,7.6,4.7,8.3C4.7,8.9,5.2,9.4,5.8,9.5L5.8,9.5z"/>
<path id="路径_7" class="st0" d="M15.8,14.6c-3.1-1.6-6.5-2.5-10-2.6h0c-0.7,0-1.2,0.6-1.2,1.3c0,0.6,0.5,1.1,1.2,1.2
	c3.1,0.1,6.2,0.9,9,2.4c0.6,0.3,1.3,0.1,1.5-0.5c0,0,0,0,0-0.1C16.6,15.6,16.4,14.9,15.8,14.6L15.8,14.6z"/>
<path id="路径_8" class="st0" d="M15.8,19.5c-3.1-1.6-6.5-2.5-10-2.6h0c-0.7,0-1.2,0.6-1.2,1.3c0,0.6,0.5,1.1,1.2,1.2
	c3.1,0.1,6.2,0.9,9,2.4c0.6,0.3,1.3,0.1,1.5-0.5c0,0,0,0,0-0.1C16.6,20.6,16.4,19.8,15.8,19.5L15.8,19.5z"/>
<path id="路径_9" class="st0" d="M24.2,9.6c-0.6,0.3-0.8,1.1-0.5,1.7c0.2,0.4,0.6,0.7,1.1,0.7c0.2,0,0.4,0,0.5-0.1
	c2.7-1.5,5.8-2.3,8.9-2.4c0.7-0.1,1.2-0.6,1.1-1.3C35.2,7.5,34.7,7,34,7C30.6,7.1,27.2,8,24.2,9.6z"/>
<path id="路径_10" class="st0" d="M39.1,0.6C37.6,0.2,36,0,34.4,0l0,0C29.1,0.1,24.1,2,20,5.3C15.9,2,10.9,0.1,5.7,0
	C4.1,0,2.5,0.2,0.9,0.6C0.4,0.8,0,1.3,0,1.8v24.3c0,0.4,0.2,0.7,0.5,1c0.3,0.3,0.7,0.3,1.1,0.2c3.3-0.9,9.9-1.4,17.8,4.8
	c0.4,0.3,1,0.3,1.4,0c2.2-1.8,4.8-3.3,7.5-4.2v13.2c0,0.7,0.5,1.2,1.2,1.2h4.7c0.7,0,1.2-0.6,1.2-1.2V26.8c1.1,0.1,2.2,0.2,3.3,0.5
	c0.4,0.1,0.8,0,1.1-0.2c0.3-0.2,0.5-0.6,0.5-1V1.8C40,1.3,39.6,0.8,39.1,0.6L39.1,0.6z M2.3,24.6V2.8c1.1-0.2,2.2-0.3,3.4-0.3
	c4.8,0.2,9.4,1.9,13.1,4.9v21.3c-3.3-2.3-7.1-3.8-11.1-4.3C6,24.2,4.1,24.3,2.3,24.6z M32.5,19.9H31l0.7-2.5L32.5,19.9z M32.9,39.8
	h-2.3V22.4h2.3V39.8z M37.7,24.6c-0.8-0.1-1.6-0.2-2.4-0.3v-3.2c0-0.1,0-0.3-0.1-0.4L32.8,13c-0.2-0.6-0.7-0.9-1.3-0.9
	c-2.6,0.4-5.1,1.2-7.4,2.4c-0.6,0.3-0.8,1.1-0.5,1.7c0.2,0.4,0.6,0.7,1.1,0.7c0.2,0,0.4,0,0.5-0.1c1.5-0.8,3.1-1.4,4.8-1.8l-1.7,5.8
	c0,0.1-0.1,0.3-0.1,0.4v4.1c-2.5,0.8-4.9,2-7,3.5V7.4c3.7-3.1,8.4-4.8,13.2-4.9l0,0c1.1,0,2.2,0.1,3.3,0.3L37.7,24.6z"/>
</svg>
