<svg xmlns="http://www.w3.org/2000/svg" width="32.633" height="34.618" viewBox="0 0 32.633 34.618">
  <g id="组_786" data-name="组 786" transform="translate(-14.371)">
    <g id="组_635" data-name="组 635" transform="translate(14.371)">
      <g id="组_634" data-name="组 634">
        <path id="路径_382" data-name="路径 382" d="M46.374,30.936l-7.006-7.006a7.33,7.33,0,0,0-2.445-9.548v-8a.69.69,0,0,0-.2-.488L31.03.2a.69.69,0,0,0-.488-.2H15.061a.69.69,0,0,0-.69.69v29.5a.69.69,0,0,0,.69.69H36.233a.69.69,0,0,0,.69-.69v-2.6l6.4,6.4a2.157,2.157,0,0,0,3.051-3.051ZM34.568,5.691H31.232V2.355L32.9,4.023Zm.975,21.643V29.5H15.75V1.379h14.1v5a.69.69,0,0,0,.69.69h5v6.6h0a7.33,7.33,0,1,0,0,13.665Zm.519-1.8q-.088.055-.177.108a5.95,5.95,0,1,1,2.038-1.969A6.016,6.016,0,0,1,36.063,25.535ZM45.4,33.011a.778.778,0,0,1-1.1,0L37.492,26.2h0a7.44,7.44,0,0,0,1.1-1.1h0L45.4,31.911A.779.779,0,0,1,45.4,33.011Z" transform="translate(-14.371 0)" fill="#fff"/>
        <path id="路径_383" data-name="路径 383" d="M216.2,237.028a4.852,4.852,0,0,0-2.33,4.162.707.707,0,0,0,1.414,0,3.448,3.448,0,0,1,1.656-2.957.707.707,0,0,0-.74-1.2Z" transform="translate(-200.156 -220.651)" fill="#fff"/>
        <path id="路径_384" data-name="路径 384" d="M276.092,228.9a4.878,4.878,0,0,0-2.458-.664.707.707,0,0,0,0,1.414,3.463,3.463,0,0,1,1.745.471.707.707,0,1,0,.713-1.221Z" transform="translate(-255.151 -212.516)" fill="#fff"/>
      </g>
    </g>
  </g>
</svg>
