<svg xmlns="http://www.w3.org/2000/svg" width="31.281" height="31.281" viewBox="0 0 31.281 31.281">
  <path id="路径_443" data-name="路径 443" d="M15.008,6.8a2.387,2.387,0,0,0-3.583,2.07v6.087a2.381,2.381,0,0,0,3.583,2.07l5.245-3.043a2.395,2.395,0,0,0,0-4.14Zm-1.14,8.063v-5.9l5.083,2.949Zm14.968-2.094V4.888a2.447,2.447,0,0,0-2.444-2.444H4.888A2.447,2.447,0,0,0,2.444,4.888V18.939a2.447,2.447,0,0,0,2.444,2.444H26.393a2.447,2.447,0,0,0,2.444-2.444,1.222,1.222,0,0,1,2.444,0,4.893,4.893,0,0,1-4.888,4.888H4.888A4.893,4.893,0,0,1,0,18.939V4.888A4.893,4.893,0,0,1,4.888,0H26.393a4.893,4.893,0,0,1,4.888,4.888v7.881a1.222,1.222,0,0,1-2.444,0Zm2.444,16.007A1.222,1.222,0,0,1,30.059,30h-15.7a1.222,1.222,0,0,1,0-2.444h15.7A1.222,1.222,0,0,1,31.281,28.776Zm-20.589.061A2.444,2.444,0,0,1,6.1,30H1.222a1.222,1.222,0,0,1,0-2.444H6.168a2.444,2.444,0,0,1,4.524,1.283Z" fill="#fff"/>
</svg>
