<svg id="组_784" data-name="组 784" xmlns="http://www.w3.org/2000/svg" width="31.28" height="31.28" viewBox="0 0 31.28 31.28">
  <g id="组_630" data-name="组 630" transform="translate(14.429 7.257)">
    <g id="组_629" data-name="组 629">
      <path id="路径_380" data-name="路径 380" d="M242.953,129.925l-4.361-3.271V119.99a1.212,1.212,0,0,0-2.423,0v7.269a1.209,1.209,0,0,0,.485.969l4.846,3.634a1.212,1.212,0,0,0,1.454-1.938Z" transform="translate(-236.169 -118.779)" fill="#fff"/>
    </g>
  </g>
  <g id="组_632" data-name="组 632">
    <g id="组_631" data-name="组 631">
      <path id="路径_381" data-name="路径 381" d="M15.64,0A15.64,15.64,0,1,0,31.28,15.64,15.657,15.657,0,0,0,15.64,0Zm0,28.857A13.217,13.217,0,1,1,28.857,15.64,13.233,13.233,0,0,1,15.64,28.857Z" fill="#fff"/>
    </g>
  </g>
</svg>
