<svg xmlns="http://www.w3.org/2000/svg" width="29.903" height="31.281" viewBox="0 0 29.903 31.281">
  <g id="组_764" data-name="组 764" transform="translate(10)">
    <path id="路径_5" data-name="路径 5" d="M13.6,23.36a.9.9,0,1,1,0-1.8H18.65a.9.9,0,1,1,0,1.8Zm-7.681-.894a.666.666,0,0,1,1.108-.741l.362.54,1.439-1.752a.666.666,0,1,1,1.029.845L7.86,23.78a.667.667,0,0,1-1.082-.036l-.863-1.278Zm0-6.34a.666.666,0,0,1,1.108-.741l.362.54,1.439-1.752a.666.666,0,0,1,1.029.845L7.86,17.44A.667.667,0,0,1,6.778,17.4l-.863-1.278Zm0-6.342a.666.666,0,0,1,1.108-.741l.362.54L8.822,7.832a.666.666,0,1,1,1.029.845L7.86,11.1a.667.667,0,0,1-1.082-.036L5.914,9.784Zm7.681.153a.9.9,0,1,1,0-1.8h9.24a.9.9,0,1,1,0,1.8ZM2.093,0h25.72A2.086,2.086,0,0,1,29.9,2.09v27.1a2.086,2.086,0,0,1-2.09,2.09H2.093a2.088,2.088,0,0,1-1.479-.611A2.065,2.065,0,0,1,0,29.193V2.093A2.086,2.086,0,0,1,2.093,0Zm25.72,1.8H2.093a.3.3,0,0,0-.3.3V29.2a.3.3,0,0,0,.3.3h25.72a.3.3,0,0,0,.3-.3V2.1a.294.294,0,0,0-.087-.209.3.3,0,0,0-.209-.087ZM13.6,16.648a.9.9,0,1,1,0-1.8h9.24a.9.9,0,1,1,0,1.8Z" transform="translate(-10)" fill="#fff"/>
  </g>
</svg>
