<svg id="组_474" data-name="组 474" xmlns="http://www.w3.org/2000/svg" width="23.49" height="23.49" viewBox="0 0 23.49 23.49">
  <g id="组_471" data-name="组 471" transform="translate(10.835 5.45)">
    <g id="组_470" data-name="组 470">
      <path id="路径_312" data-name="路径 312" d="M241.264,127.149l-3.275-2.456v-5a.91.91,0,1,0-1.82,0v5.459a.908.908,0,0,0,.364.728l3.639,2.729a.91.91,0,0,0,1.092-1.456Z" transform="translate(-236.169 -118.779)" fill="#50b1ff"/>
    </g>
  </g>
  <g id="组_473" data-name="组 473">
    <g id="组_472" data-name="组 472">
      <path id="路径_313" data-name="路径 313" d="M11.745,0A11.745,11.745,0,1,0,23.49,11.745,11.758,11.758,0,0,0,11.745,0Zm0,21.671a9.926,9.926,0,1,1,9.926-9.926A9.938,9.938,0,0,1,11.745,21.671Z" fill="#50b1ff"/>
    </g>
  </g>
</svg>
