<svg xmlns="http://www.w3.org/2000/svg" width="22" height="20.207" viewBox="0 0 22 20.207">
  <g id="Solid" transform="translate(-23.999 -429.794)">
    <path id="路径_396" data-name="路径 396" d="M25.138,70.068H42.115l-1.851,1.851a1.138,1.138,0,1,0,1.609,1.609l3.793-3.793a1.138,1.138,0,0,0,0-1.609h0l-3.793-3.793a1.138,1.138,0,1,0-1.609,1.609l1.851,1.851H25.138a1.138,1.138,0,0,0,0,2.276Z" transform="translate(-0.001 365.795)" fill="#50b1ff"/>
    <path id="路径_397" data-name="路径 397" d="M44.861,243.792H27.884l1.851-1.85a1.138,1.138,0,1,0-1.609-1.609l-3.793,3.793a1.138,1.138,0,0,0,0,1.609h0l3.793,3.793a1.138,1.138,0,1,0,1.609-1.609h0l-1.851-1.85H44.861a1.138,1.138,0,0,0,0-2.276Z" transform="translate(0 200.14)" fill="#50b1ff"/>
  </g>
</svg>
