<svg xmlns="http://www.w3.org/2000/svg" width="62" height="123.998" viewBox="0 0 62 123.998">
  <g id="组_804" data-name="组 804" transform="translate(-0.75 -369.424)">
    <path id="减去_16" data-name="减去 16" d="M0,124H0V0A61.613,61.613,0,0,1,24.133,4.872,61.791,61.791,0,0,1,43.84,18.159,61.79,61.79,0,0,1,57.128,37.866a62.2,62.2,0,0,1,0,48.266A61.79,61.79,0,0,1,43.84,105.839a61.791,61.791,0,0,1-19.708,13.287A61.613,61.613,0,0,1,0,124Z" transform="translate(0.75 369.424)" fill="#fc8aac"/>
    <path id="减去_17" data-name="减去 17" d="M0,109.578H0V0A54.448,54.448,0,0,1,21.327,4.306,54.6,54.6,0,0,1,38.742,16.047,54.611,54.611,0,0,1,50.485,33.463a54.971,54.971,0,0,1,0,42.653A54.611,54.611,0,0,1,38.742,93.531a54.606,54.606,0,0,1-17.416,11.742A54.448,54.448,0,0,1,0,109.578Z" transform="translate(0.75 376.633)" fill="#fc8aac"/>
    <g id="组_175" data-name="组 175" transform="translate(12.045 414.122)">
      <g id="组_12" data-name="组 12" transform="translate(0)">
        <path id="路径_19" data-name="路径 19" d="M.535,18.079,15.461,33.005a1.839,1.839,0,0,0,2.595,0l1.1-1.1a1.837,1.837,0,0,0,0-2.595L6.621,16.778,19.169,4.23a1.839,1.839,0,0,0,0-2.6l-1.1-1.1a1.839,1.839,0,0,0-2.595,0L.535,15.475a1.852,1.852,0,0,0,0,2.6Z" fill="#fff"/>
      </g>
    </g>
  </g>
</svg>
