<svg xmlns="http://www.w3.org/2000/svg" width="62" height="123.998" viewBox="0 0 62 123.998">
  <g id="组_805" data-name="组 805" transform="translate(-1138.75 -369.425)">
    <path id="减去_14" data-name="减去 14" d="M0,0H0V124a61.613,61.613,0,0,0,24.133-4.872A61.791,61.791,0,0,0,43.84,105.839,61.79,61.79,0,0,0,57.128,86.132a62.2,62.2,0,0,0,0-48.266A61.79,61.79,0,0,0,43.84,18.159,61.791,61.791,0,0,0,24.133,4.872,61.613,61.613,0,0,0,0,0Z" transform="translate(1200.75 493.422) rotate(180)" fill="#cccccc"/>
    <path id="减去_15" data-name="减去 15" d="M0,109.579H0V0A54.446,54.446,0,0,1,21.327,4.306,54.607,54.607,0,0,1,38.743,16.047,54.607,54.607,0,0,1,50.485,33.463a54.969,54.969,0,0,1,0,42.653A54.608,54.608,0,0,1,38.743,93.531a54.608,54.608,0,0,1-17.415,11.742A54.446,54.446,0,0,1,0,109.579Z" transform="translate(1200.75 486.212) rotate(180)" fill="#cccccc"/>
    <g id="组_170" data-name="组 170" transform="translate(1169.75 414.122)">
      <g id="组_12" data-name="组 12" transform="translate(0)">
        <path id="路径_19" data-name="路径 19" d="M19.17,18.079,4.244,33.005a1.839,1.839,0,0,1-2.595,0l-1.1-1.1a1.837,1.837,0,0,1,0-2.595L13.084,16.778.536,4.23a1.839,1.839,0,0,1,0-2.6l1.1-1.1a1.839,1.839,0,0,1,2.595,0l14.94,14.94a1.852,1.852,0,0,1,0,2.6Z" fill="#fff"/>
      </g>
    </g>
  </g>
</svg>
