<?xml version="1.0" encoding="utf-8"?>
<!-- Generator: Adobe Illustrator 25.3.1, SVG Export Plug-In . SVG Version: 6.00 Build 0)  -->
<svg version="1.1" id="圖層_1" xmlns="http://www.w3.org/2000/svg" xmlns:xlink="http://www.w3.org/1999/xlink" x="0px" y="0px"
	 viewBox="0 0 40 31" style="enable-background:new 0 0 40 31;" xml:space="preserve">
<style type="text/css">
	.st0{fill:#FFFFFF;}
</style>
<path id="路径_450" class="st0" d="M15.3,30.4c-0.8,0.8-2.1,0.8-2.9,0c0,0,0,0,0,0L0.9,18.9c-1.2-1.2-1.2-3.1,0-4.3c0,0,0,0,0,0
	l1.5-1.5c1.2-1.2,3.1-1.2,4.3,0c0,0,0,0,0,0l7.2,7.2L33.3,0.9c1.2-1.2,3.1-1.2,4.3,0c0,0,0,0,0,0l1.5,1.5c1.2,1.2,1.2,3.1,0,4.3
	c0,0,0,0,0,0L15.3,30.4z"/>
</svg>
