<svg id="icon" xmlns="http://www.w3.org/2000/svg" width="30" height="30" viewBox="0 0 30 30">
  <path id="路径_18" data-name="路径 18" d="M729.828,20.625A1.172,1.172,0,0,0,731,19.453V7.031a4.693,4.693,0,0,0-4.687-4.688h-1.523V1.172a1.172,1.172,0,1,0-2.344,0V2.344h-5.332V1.172a1.172,1.172,0,1,0-2.344,0V2.344H709.5V1.172a1.172,1.172,0,1,0-2.344,0V2.344h-1.465A4.693,4.693,0,0,0,701,7.031V25.313A4.693,4.693,0,0,0,705.688,30h20.625A4.693,4.693,0,0,0,731,25.313a1.172,1.172,0,1,0-2.344,0,2.346,2.346,0,0,1-2.344,2.344H705.688a2.346,2.346,0,0,1-2.344-2.344V7.031a2.346,2.346,0,0,1,2.344-2.344h1.465V5.859a1.172,1.172,0,1,0,2.344,0V4.688h5.273V5.859a1.172,1.172,0,1,0,2.344,0V4.688h5.332V5.859a1.172,1.172,0,1,0,2.344,0V4.688h1.523a2.346,2.346,0,0,1,2.344,2.344V19.453A1.172,1.172,0,0,0,729.828,20.625Z" transform="translate(-701)" fill="#fff"/>
  <rect id="矩形_35" data-name="矩形 35" width="13.682" height="2.344" rx="1.172" transform="translate(8.174 15.902)" fill="#fff"/>
  <rect id="矩形_36" data-name="矩形 36" width="13.682" height="2.344" rx="1.172" transform="translate(13.843 23.914) rotate(-90)" fill="#fff"/>
</svg>
