<svg id="组_698" data-name="组 698" xmlns="http://www.w3.org/2000/svg" width="30" height="30" viewBox="0 0 30 30">
  <g id="组_697" data-name="组 697">
    <g id="组_696" data-name="组 696">
      <path id="路径_394" data-name="路径 394" d="M279,282.1a2.346,2.346,0,0,0,2.344,2.344H284.1a2.346,2.346,0,0,0,2.344-2.344v-2.754A2.346,2.346,0,0,0,284.1,277h-2.754A2.346,2.346,0,0,0,279,279.344Zm2.344-2.754H284.1V282.1h-2.755Z" transform="translate(-262.652 -260.77)" fill="#fff"/>
      <ellipse id="椭圆_140" data-name="椭圆 140" cx="1.05" cy="1.182" rx="1.05" ry="1.182" transform="translate(21.597 11.094)" fill="#fff"/>
      <circle id="椭圆_141" data-name="椭圆 141" cx="1.182" cy="1.182" r="1.182" transform="translate(16.346 11.094)" fill="#fff"/>
      <path id="路径_395" data-name="路径 395" d="M28.828,20.625A1.172,1.172,0,0,0,30,19.453V7.031a4.693,4.693,0,0,0-4.687-4.687H23.789V1.172a1.172,1.172,0,0,0-2.344,0V2.344H16.113V1.172a1.172,1.172,0,1,0-2.344,0V2.344H8.5V1.172a1.172,1.172,0,0,0-2.344,0V2.344H4.688A4.693,4.693,0,0,0,0,7.031V25.313A4.693,4.693,0,0,0,4.688,30H25.313A4.693,4.693,0,0,0,30,25.313a1.172,1.172,0,1,0-2.344,0,2.346,2.346,0,0,1-2.344,2.344H4.688a2.346,2.346,0,0,1-2.344-2.344V7.031A2.346,2.346,0,0,1,4.688,4.688H6.152V5.859a1.172,1.172,0,0,0,2.344,0V4.688H13.77V5.859a1.172,1.172,0,1,0,2.344,0V4.688h5.332V5.859a1.172,1.172,0,0,0,2.344,0V4.688h1.523a2.346,2.346,0,0,1,2.344,2.344V19.453A1.172,1.172,0,0,0,28.828,20.625Z" fill="#fff"/>
      <circle id="椭圆_142" data-name="椭圆 142" cx="1.182" cy="1.182" r="1.182" transform="translate(6.105 21.335)" fill="#fff"/>
      <circle id="椭圆_143" data-name="椭圆 143" cx="1.182" cy="1.182" r="1.182" transform="translate(6.105 11.094)" fill="#fff"/>
      <circle id="椭圆_144" data-name="椭圆 144" cx="1.182" cy="1.182" r="1.182" transform="translate(6.105 16.346)" fill="#fff"/>
      <circle id="椭圆_145" data-name="椭圆 145" cx="1.182" cy="1.182" r="1.182" transform="translate(11.357 16.346)" fill="#fff"/>
      <circle id="椭圆_146" data-name="椭圆 146" cx="1.182" cy="1.182" r="1.182" transform="translate(11.357 11.094)" fill="#fff"/>
      <circle id="椭圆_147" data-name="椭圆 147" cx="1.182" cy="1.182" r="1.182" transform="translate(11.357 21.335)" fill="#fff"/>
    </g>
  </g>
</svg>
