<svg xmlns="http://www.w3.org/2000/svg" width="401.593" height="123.265" viewBox="0 0 401.593 123.265">
  <g id="组_803" data-name="组 803" transform="translate(-405.715 -117.736)">
    <g id="组_802" data-name="组 802">
      <g id="组_172" data-name="组 172" transform="translate(491.75 138.357)">
        <path id="路径_27" data-name="路径 27" d="M70.919,128.257h.043l11.908,11.635,7.186-8.34q.232.115,5.908,4.568v.044L94.687,137.5Q82.4,149.427,80.695,151.772l.012.054q-.6-.445-17.436-14.431v-.044Z" transform="translate(-63.27 -87.513)" fill="#50b1ff"/>
        <path id="路径_28" data-name="路径 28" d="M119.77,84.039l.086.017,4.049,5.764-.017.085-7.046,2.453.324.6a25.148,25.148,0,0,0,3.4,3.227q2.8-2.9,3.176-3.146l3.37,2.731L123.2,98.814l.034.052,3.8,3.708,3.881-4.429q.915.932,4.649,5.441l-.017.085-1.389.922a125.784,125.784,0,0,0-11.791,8.735l-.1-.154-.481.616q-.128.085-7.04-9.265-5.844-7.575-7.4-9.917Q109.194,93.376,119.77,84.039Z" transform="translate(-84.096 -66.617)" fill="#50b1ff"/>
        <path id="路径_29" data-name="路径 29" d="M167.509,57.16q.182.129,3.071,4.544-.357.32-5.367,3.769l10.412,18.084q-2.133.82-11.393,5.439l-2.52-5.219-4.629-10.231-.043.017-4.818,5.757-.011-.029q-.3-.778-4.31-9.874Z" transform="translate(-103.263 -53.915)" fill="#50b1ff"/>
        <path id="路径_30" data-name="路径 30" d="M203.663,61.965,205.9,72.78l-3.176.726L199.99,62.8Z" transform="translate(-127.879 -56.186)" fill="#50b1ff"/>
        <path id="路径_31" data-name="路径 31" d="M229.756,51.1l.507-.049a8.027,8.027,0,0,1,6.715,2.589,4.157,4.157,0,0,1,.995,2.155q.1,1.03-.428,1.36-4.6,3.8-5.3,4.474l0,.046a13.96,13.96,0,0,1,4.293,1.593,10.76,10.76,0,0,1,3.149,6.216l.045.476q.358,3.767-3.565,6.063a23.109,23.109,0,0,1-8.956,2.713l-.646.061q-4.935.469-6.7-1.907a9.575,9.575,0,0,1-2.49-4.169l-.1-.518,4.569-3.335,0-.046q-4.144-4.43-4.306-6.137l0-.046q-.266-2.8,3.123-7.292a15.107,15.107,0,0,1,3.44-2.483A15.725,15.725,0,0,1,229.756,51.1Z" transform="translate(-136.054 -51.008)" fill="#50b1ff"/>
        <path id="路径_32" data-name="路径 32" d="M304.031,57.5l1.316.271a12.617,12.617,0,0,1,5.527,2.714,7.879,7.879,0,0,1,1.739,2.581,7.3,7.3,0,0,1,.483,4.167l-.265,1.285q-.626,3.04-4.346,5.491a17.052,17.052,0,0,1-7.011,2.12A12.118,12.118,0,0,1,298.286,76l-.469-.1a2.683,2.683,0,0,1-2.146-1.372l-.045-.009-.009.045-.068,7.759q-1.154-.064-12.98-1.284l-.035-.054.009-.045L287.4,58.051a18.975,18.975,0,0,1,4.348-.9Q300.008,56.674,304.031,57.5ZM297.073,63.2q-.22,1.989-.513,3.411l-.879,3.808q5.526.271,5.75-.819l.146-.711a8.782,8.782,0,0,0-.18-4.1q-.239-1.059-3.794-1.79l-.136-.028Z" transform="translate(-166.886 -53.828)" fill="#50b1ff"/>
        <path id="路径_33" data-name="路径 33" d="M363.87,74.343l.014.042L356.1,89.1l10.036,4.526q-.045.255-2.705,6.961l-.042.013-1.649-.846q-14.919-8.4-17.651-9.373l-.049.027q.256-.7,8.9-20.812l.041-.014Z" transform="translate(-195.954 -59.788)" fill="#50b1ff"/>
        <path id="路径_34" data-name="路径 34" d="M409.2,107.015,398.68,129.138a82.839,82.839,0,0,1-7.675-4.259l.02-.023q.8-1.654,2.333-4.213-2.96-1.939-3.253-1.6a18.253,18.253,0,0,1-2.926,2.47l-4.439-3.062-.621-.438q17-17.507,17.226-17.315Zm-9.728,3.021-6.089,6.084,2.976,1.073Z" transform="translate(-213.947 -74.488)" fill="#50b1ff"/>
        <path id="路径_35" data-name="路径 35" d="M439.756,141.392l-5.848,8.193.045.063q8.175-2.523,8.3-2.347,4.377,7.268,4.633,7.9l-27.962,3.492-.044-.063-5.073-9.572,11.475-.974,6.705-14.461A88.739,88.739,0,0,1,439.756,141.392Z" transform="translate(-228.92 -90.049)" fill="#50b1ff"/>
      </g>
      <g id="组_173" data-name="组 173" transform="translate(718.193 117.736)">
        <path id="路径_39" data-name="路径 39" d="M65.428,93.844,80.663,49.312,98.827,60.445,112.3,1.265l24.61,38.672-22.266-18.75-9.375,65.626L80.663,65.719Z" transform="translate(-49.428 -1.265)" fill="#50b1ff"/>
        <path id="路径_40" data-name="路径 40" d="M73.29,100.255,91.148,76.578l12.292,9.877,18.57-32.685,13.347,27.377L121.005,66.011,104.66,103.26,88.849,86.312Z" transform="translate(-46.243 20.005)" fill="#50b1ff"/>
      </g>
      <g id="组_174" data-name="组 174" transform="translate(405.715 143.409)">
        <path id="路径_41" data-name="路径 41" d="M51.893,102.352l-10.915-31.9L27.964,78.424l-9.655-42.4L.678,63.731,16.63,50.3l6.717,47.017L40.978,82.2Z" transform="translate(0.275 -36.025)" fill="#50b1ff"/>
        <path id="路径_42" data-name="路径 42" d="M42.708,106.825,30.42,90.533l-8.458,6.8L9.184,74.838,0,93.676,9.875,83.262l11.247,25.63L32,97.231Z" transform="translate(0 -20.301)" fill="#50b1ff"/>
      </g>
    </g>
  </g>
</svg>
