<svg xmlns="http://www.w3.org/2000/svg" xmlns:xlink="http://www.w3.org/1999/xlink" width="280" height="172" viewBox="0 0 280 172">
  <defs>
    <clipPath id="clip-path">
      <rect id="矩形_357" data-name="矩形 357" width="280" height="172" transform="translate(444 680)" fill="#fff"/>
    </clipPath>
  </defs>
  <g id="蒙版组_35" data-name="蒙版组 35" transform="translate(-444 -680)" opacity="0.4" clip-path="url(#clip-path)">
    <path id="Mickey" d="M514.371,58.9c-14.51-17.042-40.412-20.755-53.921-8.287-10.628,9.812-13.12,26.961-6.684,41.667a65.537,65.537,0,0,0-29.8-13.109,63.557,63.557,0,0,0-31.09,2.6c10.734-12.13,13.244-28.857,5.21-42.241-9.458-15.764-31.406-19.382-51.164-8.878-19.495,10.369-27.349,34.016-18.42,50.433,7,12.867,24.755,18.521,41.4,14.487A64.158,64.158,0,0,0,403.283,205.9c34.893,5.761,68.74-18.364,74.5-53.257a62.352,62.352,0,0,0-7.235-40.8c14.138,9.542,30.955,10.228,42.449.484,15.179-12.873,15.883-36.384,1.378-53.426" transform="translate(150.34 875.415) rotate(-30)" fill="#fff"/>
  </g>
</svg>
