<svg id="Group_769" data-name="Group 769" xmlns="http://www.w3.org/2000/svg" width="37.663" height="32.094" viewBox="0 0 37.663 32.094">
  <g id="Group_180" data-name="Group 180">
    <path id="Path_177" data-name="Path 177" d="M3.715,20.155a3.152,3.152,0,0,0-.866-2.773A4.225,4.225,0,0,0,.059,16.088a3.554,3.554,0,0,0,.818,3A3.658,3.658,0,0,0,3.715,20.155Z" transform="translate(0 -0.024)" fill="#ed4c7c"/>
    <path id="Path_178" data-name="Path 178" d="M5.635,20.125a3.653,3.653,0,0,0,1.709-2.506A3.553,3.553,0,0,0,6.29,14.693a4.247,4.247,0,0,0-1.538,2.664A3.145,3.145,0,0,0,5.635,20.125Z" transform="translate(0.808 -0.264)" fill="#ed4c7c"/>
    <path id="Path_179" data-name="Path 179" d="M7.535,23.83A3.664,3.664,0,0,0,8.9,21.121a3.561,3.561,0,0,0-1.43-2.762A4.23,4.23,0,0,0,6.3,21.2,3.146,3.146,0,0,0,7.535,23.83Z" transform="translate(1.081 0.365)" fill="#ed4c7c"/>
    <path id="Path_180" data-name="Path 180" d="M11.456,23.137a3.558,3.558,0,0,0-1.682-2.616,4.231,4.231,0,0,0-.9,2.938,3.144,3.144,0,0,0,1.478,2.5A3.665,3.665,0,0,0,11.456,23.137Z" transform="translate(1.52 0.736)" fill="#ed4c7c"/>
    <path id="Path_181" data-name="Path 181" d="M13.97,27.748a3.651,3.651,0,0,0,.251-3.022A3.558,3.558,0,0,0,11.856,22.7a4.244,4.244,0,0,0-.022,3.078A3.148,3.148,0,0,0,13.97,27.748Z" transform="translate(1.983 1.11)" fill="#ed4c7c"/>
    <path id="Path_182" data-name="Path 182" d="M3.95,17.1a3.141,3.141,0,0,0,.819-2.787,4.242,4.242,0,0,0-1.6-2.627,3.561,3.561,0,0,0-.985,2.953A3.65,3.65,0,0,0,3.95,17.1Z" transform="translate(0.367 -0.778)" fill="#ed4c7c"/>
    <path id="Path_183" data-name="Path 183" d="M5.13,22.866a3.15,3.15,0,0,0-1.645-2.4,4.25,4.25,0,0,0-3.048-.416A3.553,3.553,0,0,0,2.1,22.681,3.658,3.658,0,0,0,5.13,22.866Z" transform="translate(0.075 0.636)" fill="#ed4c7c"/>
    <path id="Path_184" data-name="Path 184" d="M7.449,25.282a3.149,3.149,0,0,0-2.136-1.969,4.238,4.238,0,0,0-3.065.269,3.565,3.565,0,0,0,2.209,2.192A3.64,3.64,0,0,0,7.449,25.282Z" transform="translate(0.386 1.186)" fill="#ed4c7c"/>
    <path id="Path_185" data-name="Path 185" d="M10,26.953a3.145,3.145,0,0,0-2.631-1.229,4.242,4.242,0,0,0-2.84,1.183A3.557,3.557,0,0,0,7.3,28.328,3.645,3.645,0,0,0,10,26.953Z" transform="translate(0.777 1.628)" fill="#ed4c7c"/>
    <path id="Path_186" data-name="Path 186" d="M10.663,27.514A4.246,4.246,0,0,0,7.987,29.03a3.555,3.555,0,0,0,2.918,1.081,3.644,3.644,0,0,0,2.516-1.689A3.148,3.148,0,0,0,10.663,27.514Z" transform="translate(1.37 1.929)" fill="#ed4c7c"/>
    <path id="Path_187" data-name="Path 187" d="M4.307,17.063l-.852-.034c0,.094-.214,9.319,13.707,13.478l.244-.815C4.15,25.731,4.292,17.413,4.307,17.063Z" transform="translate(0.593 0.137)" fill="#ed4c7c"/>
    <path id="Path_188" data-name="Path 188" d="M28.985,20.177a3.655,3.655,0,0,0,2.839-1.068,3.554,3.554,0,0,0,.818-3,4.24,4.24,0,0,0-2.792,1.3A3.148,3.148,0,0,0,28.985,20.177Z" transform="translate(4.963 -0.021)" fill="#ed4c7c"/>
    <path id="Path_189" data-name="Path 189" d="M25.193,17.64A3.656,3.656,0,0,0,26.9,20.146a3.147,3.147,0,0,0,.884-2.766,4.243,4.243,0,0,0-1.538-2.664A3.549,3.549,0,0,0,25.193,17.64Z" transform="translate(4.315 -0.26)" fill="#ed4c7c"/>
    <path id="Path_190" data-name="Path 190" d="M25.056,18.379a3.565,3.565,0,0,0-1.432,2.762,3.67,3.67,0,0,0,1.369,2.709,3.151,3.151,0,0,0,1.238-2.63A4.248,4.248,0,0,0,25.056,18.379Z" transform="translate(4.052 0.369)" fill="#ed4c7c"/>
    <path id="Path_191" data-name="Path 191" d="M21.072,23.158a3.661,3.661,0,0,0,1.108,2.821,3.144,3.144,0,0,0,1.478-2.5,4.242,4.242,0,0,0-.9-2.939A3.569,3.569,0,0,0,21.072,23.158Z" transform="translate(3.613 0.739)" fill="#ed4c7c"/>
    <path id="Path_192" data-name="Path 192" d="M18.349,24.747a3.649,3.649,0,0,0,.251,3.021A3.148,3.148,0,0,0,20.735,25.8a4.244,4.244,0,0,0-.023-3.079A3.564,3.564,0,0,0,18.349,24.747Z" transform="translate(3.109 1.113)" fill="#ed4c7c"/>
    <path id="Path_193" data-name="Path 193" d="M28.591,17.126a3.654,3.654,0,0,0,1.768-2.461,3.56,3.56,0,0,0-.986-2.953,4.233,4.233,0,0,0-1.6,2.627A3.14,3.14,0,0,0,28.591,17.126Z" transform="translate(4.754 -0.775)" fill="#ed4c7c"/>
    <path id="Path_194" data-name="Path 194" d="M29.348,20.491A3.147,3.147,0,0,0,27.7,22.886,3.656,3.656,0,0,0,30.73,22.7,3.555,3.555,0,0,0,32.4,20.074,4.24,4.24,0,0,0,29.348,20.491Z" transform="translate(4.752 0.639)" fill="#ed4c7c"/>
    <path id="Path_195" data-name="Path 195" d="M27.594,23.335A3.149,3.149,0,0,0,25.458,25.3a3.655,3.655,0,0,0,2.993.493,3.563,3.563,0,0,0,2.209-2.192A4.236,4.236,0,0,0,27.594,23.335Z" transform="translate(4.367 1.19)" fill="#ed4c7c"/>
    <path id="Path_196" data-name="Path 196" d="M25.579,25.745a3.145,3.145,0,0,0-2.631,1.23,3.646,3.646,0,0,0,2.7,1.375,3.561,3.561,0,0,0,2.768-1.421A4.239,4.239,0,0,0,25.579,25.745Z" transform="translate(3.936 1.632)" fill="#ed4c7c"/>
    <path id="Path_197" data-name="Path 197" d="M22.28,27.534a3.144,3.144,0,0,0-2.758.906,3.647,3.647,0,0,0,2.515,1.69,3.552,3.552,0,0,0,2.918-1.082A4.248,4.248,0,0,0,22.28,27.534Z" transform="translate(3.349 1.933)" fill="#ed4c7c"/>
    <path id="Path_198" data-name="Path 198" d="M30.734,17.048l-.853.034c.015.353.157,8.667-13.1,12.628l.244.814C30.949,26.367,30.737,17.142,30.734,17.048Z" transform="translate(2.879 0.14)" fill="#ed4c7c"/>
    <path id="Path_199" data-name="Path 199" d="M24.355,23.273,23.387,15.4l5.269-5.355L21.1,9.037,17.683,2.409V2.376L14.256,9.014,6.7,10.022l5.269,5.356-.966,7.87,6.671-3.625v.021Z" transform="translate(1.15 -2.376)" fill="#ed4c7c"/>
  </g>
</svg>
