<svg xmlns="http://www.w3.org/2000/svg" width="36.995" height="29.812" viewBox="0 0 36.995 29.812" fill='#ffffff'>
  <path id="Path_446" data-name="Path 446" d="M28.2,28.1c-.707.143-1.372.312-2.047.408a5.439,5.439,0,0,1-6.371-4.457,7.452,7.452,0,0,1,2.17-6.521,7.7,7.7,0,0,1,5.379-2.527,5.5,5.5,0,0,1,5.837,4.545,7.823,7.823,0,0,1-.494,4.042,11.421,11.421,0,0,1,10.916-.047c-.151-.693-.314-1.318-.421-1.953A5.538,5.538,0,0,1,49,15.036,8.219,8.219,0,0,1,56.6,21.843c.577,4.021-2.048,6.84-5.816,6.764a16.627,16.627,0,0,1-2.629-.471,11.258,11.258,0,0,1,.564,9.465,11.04,11.04,0,0,1-4.436,5.429A11.333,11.333,0,0,1,28.2,28.1Z" transform="translate(-19.689 -15.002)" fill="#ffffff"/>
</svg>
