<svg xmlns="http://www.w3.org/2000/svg" width="286.929" height="93.057" viewBox="0 0 286.929 93.057">
  <g id="组_87" data-name="组 87" transform="translate(-54.333 -28.53)">
    <g id="组_84" data-name="组 84" transform="translate(72.996 35.209)">
      <path id="路径_78" data-name="路径 78" d="M75.522,70.839l8.253-7.093,2.244-.989-.16,14.4q15.089-3.322,16.408-3.191l.083.087L99.907,84.336l-4.188.351-10.186-.594.041.043L92.623,88.2q-.072.3-4.8,8.408-3.074-2.395-19.51-13.8l1.7-3.878.084.023q1.159-1.7,2.7-4.273.158.014,6.412,4.373.076-.072-3.265-6.981Q75.392,70.962,75.522,70.839Z" transform="translate(-68.313 -23.744)" fill="#50b1ff"/>
      <path id="路径_79" data-name="路径 79" d="M97.807,50.852l.084.012,4.265,5.347-.012.083L95.46,59.088l.351.563A24.493,24.493,0,0,0,99.3,62.576q2.545-2.974,2.892-3.235l3.427,2.447L102,64.966l.037.048,3.9,3.37,3.5-4.522q.941.849,4.826,5l-.012.084-1.291.976a122.226,122.226,0,0,0-10.911,9.162l-.108-.144-.43.626q-.118.09-7.369-8.563-6.11-7-7.755-9.174Q88.109,60.526,97.807,50.852Z" transform="translate(-62.258 -27.732)" fill="#50b1ff"/>
      <path id="路径_80" data-name="路径 80" d="M112.441,41.777l.083.02,3.678,5.766-.021.083-6.939,2.075.287.6a24.541,24.541,0,0,0,3.163,3.279q2.844-2.691,3.216-2.916l3.149,2.794-3.925,2.781.031.052,3.522,3.761,3.956-4.129q.847.943,4.273,5.477l-.021.083-1.387.834A122.163,122.163,0,0,0,113.691,70.3l-.093-.154-.493.575q-.128.078-6.428-9.289-5.341-7.6-6.748-9.939Q101.779,50.376,112.441,41.777Z" transform="translate(-57.722 -30.772)" fill="#50b1ff"/>
      <path id="路径_81" data-name="路径 81" d="M130.163,34.8l1.216-.473a12.25,12.25,0,0,1,5.937-.7,7.656,7.656,0,0,1,2.778,1.187,7.086,7.086,0,0,1,2.59,3.144l.463,1.187q1.093,2.809-.647,6.768a16.562,16.562,0,0,1-4.6,5.424,11.74,11.74,0,0,1-2.671,1.571l-.433.168a2.6,2.6,0,0,1-2.472.012l-.041.017.016.041,4.034,6.361q-.973.557-11.257,5.8l-.059-.025L125,65.238l-8.11-21.217a18.374,18.374,0,0,1,3.069-3.028A50.2,50.2,0,0,1,130.163,34.8Zm-2.67,8.312q.869,1.736,1.38,3.05l1.291,3.567q4.65-2.693,4.256-3.7l-.256-.657a8.526,8.526,0,0,0-2.31-3.252q-.753-.735-4.036.542l-.127.048Z" transform="translate(-52.04 -33.533)" fill="#50b1ff"/>
    </g>
    <g id="组_85" data-name="组 85" transform="translate(181.003 28.53)">
      <path id="路径_82" data-name="路径 82" d="M149.814,53.735l-.6-22.986,6.4-.768L160.974,53.5Z" transform="translate(-149.217 -28.044)" fill="#50b1ff"/>
      <path id="路径_83" data-name="路径 83" d="M185.67,28.53q.084.2.2,5.32-.457.082-6.356.358l-.68,20.248q-2.179-.417-12.183-1.351l.6-5.595L168.677,36.7l-.043-.008-6.923,2.279.005-.031q.15-.795,1.506-10.35Z" transform="translate(-145.032 -28.53)" fill="#50b1ff"/>
    </g>
    <g id="组_86" data-name="组 86" transform="translate(234.329 33.844)">
      <path id="路径_84" data-name="路径 84" d="M207.215,34.755l.324.115q6.346,2.245,6.688,6.181a7.383,7.383,0,0,1-.34,3.124q-.993,2.813-4.962,3.781.921,2.075,5.356,13.279l-.031.084-8.5.618-2.386-10.43-2.92-.555.027.056-.016.043-2.535,8.883-8.754-2.092q-.086-.032,7.25-25.329a34.142,34.142,0,0,1,4.8.647A41.578,41.578,0,0,1,207.215,34.755Zm-5.991,4.037-1.4,5.66a3.287,3.287,0,0,0,3.651-.522l.485-.832a3.173,3.173,0,0,0-.906-3.372,4.687,4.687,0,0,0-1.3-.745Z" transform="translate(-189.162 -32.51)" fill="#50b1ff"/>
      <path id="路径_85" data-name="路径 85" d="M234.8,47.234l.024.081-3.213,6.038-.081.021-5.218-5.021-.378.543a24.348,24.348,0,0,0-1.3,4.365q3.739,1.153,4.118,1.367l-.884,4.117L223.514,56.7l-.031.051-1.542,4.915,5.54,1.415q-.4,1.2-2.669,6.415l-.081.023-1.41-.8a121.906,121.906,0,0,0-12.743-6.373l.089-.156-.745-.144q-.13-.076,4.93-10.167,3.991-8.386,5.336-10.761Q222.068,42.179,234.8,47.234Z" transform="translate(-182.208 -29.627)" fill="#50b1ff"/>
      <path id="路径_86" data-name="路径 86" d="M246.98,55.74l-9.257,21.907a80.318,80.318,0,0,1-7.627-3.8l.019-.025q.709-1.638,2.083-4.185-2.954-1.752-3.224-1.414a17.849,17.849,0,0,1-2.731,2.522l-4.436-2.781-.622-.4q15.744-17.708,15.968-17.53Zm-9.308,3.345-5.644,6.161,2.932.914Z" transform="translate(-178.435 -26.641)" fill="#50b1ff"/>
      <path id="路径_87" data-name="路径 87" d="M259.371,69.964l0,.041-12.5,10.254,7.284,7.822q-.134.212-5.036,5.214l-.043,0-1.157-1.376q-10.2-13.128-12.282-15.021l-.053.005q.495-.531,15.784-15.288l.041,0Z" transform="translate(-173.611 -22.762)" fill="#50b1ff"/>
    </g>
    <path id="路径_88" data-name="路径 88" d="M270.857,80.764l-1.5,8.095,5.819,5.822-8.161,1.077-3.739,7.334-3.547-7.429-8.13-1.29,5.969-5.669-1.286-8.131,7.236,3.925Z" transform="translate(66.084 17.435)" fill="#50b1ff"/>
    <path id="路径_89" data-name="路径 89" d="M62.987,80.574l5.7,5.938,8.124-1.33-3.886,7.257L76.7,99.755,68.6,98.3l-5.79,5.851L61.687,96l-7.354-3.7,7.409-3.587Z" transform="translate(0 17.435)" fill="#50b1ff"/>
  </g>
</svg>
