<svg xmlns="http://www.w3.org/2000/svg" xmlns:xlink="http://www.w3.org/1999/xlink" width="105.779" height="106.086" viewBox="0 0 105.779 106.086">
  <defs>
    <clipPath id="clip-path">
      <path id="路径_63" data-name="路径 63" d="M326.866,228.449c0,14.545-6.509,38.931-12.5,48.25-.75,1.166-1.665,3.137-2,3.166-1.417.125-16.125-.166-16.125-.166-.208,0-.485.072-2-2.959-4.875-9.749-12.125-32.856-12.125-47.291,0-25.751,12.645-49,23-49S326.866,202.7,326.866,228.449Z" fill="none"/>
    </clipPath>
    <clipPath id="clip-path-2">
      <path id="路径_49" data-name="路径 49" d="M303.045,255.687s-28.566-4.562-21.654-35.861a123.975,123.975,0,0,1,7.9-24.295c8.45-18.632,20.929-22.873,31.373-.84C320.665,194.691,346.642,251.8,303.045,255.687Z" fill="none"/>
    </clipPath>
  </defs>
  <g id="组_79" data-name="组 79" transform="translate(2.247 -327.083) rotate(45)">
    <g id="组_73" data-name="组 73">
      <path id="路径_45" data-name="路径 45" d="M286.285,249.433s-6.607,1.226-9.074,10c0,0-2.8,11.3,1.009,19.53,0,0,.9,1.536,3.027-1.207a13.53,13.53,0,0,1,11.048-6.124Z" fill="#df372d"/>
      <path id="路径_46" data-name="路径 46" d="M322.876,249.293s6.863,1.366,9.329,10.144c0,0,2.8,11.3-1.009,19.53,0,0-.9,1.536-3.026-1.207,0,0-3.834-6.547-11.234-6.547Z" fill="#df372d"/>
      <g id="组_72" data-name="组 72">
        <g id="组_71" data-name="组 71" clip-path="url(#clip-path)">
          <g id="组_70" data-name="组 70">
            <g id="组_69" data-name="组 69">
              <path id="路径_47" data-name="路径 47" d="M299.422,255.573s-22.7-2.943-17.669-34.579c5.6-35.225,25.3-54.028,39.686-24.413C321.439,196.581,346.237,256.622,299.422,255.573Z" fill="#d0cfcd"/>
              <path id="路径_48" data-name="路径 48" d="M289.633,195.242c2.6-4.527,3.919-7.939,6.22-10.313,5.939-6.126,13.267-6.083,18.738.019,2.295,2.559,3.106,6.173,5.009,10.447C319.6,195.4,289.386,195.674,289.633,195.242Z" fill="#ffd04c"/>
              <g id="组_68" data-name="组 68">
                <g id="组_67" data-name="组 67" clip-path="url(#clip-path-2)">
                  <rect id="矩形_112" data-name="矩形 112" width="37.029" height="12.612" transform="translate(286.773 184.943)" fill="#e1001e"/>
                </g>
              </g>
              <path id="路径_50" data-name="路径 50" d="M294.868,192.63c-3.466,5.271-4.078,10.609-5.471,9.694s.289-5.931,3.754-11.2,7.4-8.8,8.8-7.888S298.333,187.359,294.868,192.63Z" fill="#fff" opacity="0.3"/>
              <path id="路径_51" data-name="路径 51" d="M316.794,248.855c-4.831,4.056-10.163,4.853-9.092,6.129s5.835-.026,10.666-4.083,7.9-9.331,6.83-10.607S321.625,244.8,316.794,248.855Z" fill="#fff" opacity="0.3"/>
            </g>
            <path id="路径_52" data-name="路径 52" d="M305.255,206.449a24.177,24.177,0,0,1,1.426-5.4l1.86-.066s2.581,5.313-.125,13.209l-.539-.089a37.252,37.252,0,0,0-.474-9.649c-.182-.749-1.183,1.959-1.183,1.959Z" fill="#790729"/>
            <path id="路径_53" data-name="路径 53" d="M295.354,205.312l8.018,1.738a8.267,8.267,0,0,0,.023-1c-3.618-.309-8.721-1.867-9.84-2.068l-.682,1.857s-.216,4.5,4.606,9.726l.073-.406s-3.895-7.514-2.2-9.852" fill="#790729"/>
            <path id="路径_54" data-name="路径 54" d="M315.3,202.88c-1.078.358-5.895,2.625-9.43,3.444.012.111.028.222.045.332a4.307,4.307,0,0,0,.987.313l7.225-2.817c1.774,4.217-1.616,10.074-1.616,10.074l.132.39c4-5.854,3.607-9.995,3.607-9.995Z" fill="#790729"/>
            <path id="路径_55" data-name="路径 55" d="M306.867,206.88c-.02.465-1.015.8-2.222.748s-2.168-.469-2.147-.933,1.713-.89,2.92-.839,1.47.561,1.449,1.024" fill="#790729"/>
            <path id="路径_56" data-name="路径 56" d="M303.935,197.551c-.01,4.234.2,8.66.212,8.714l1.153.392-.337-9.1c0-.008,0,0-1.023,0" fill="#790729"/>
            <path id="路径_57" data-name="路径 57" d="M301.736,205.863a10.923,10.923,0,0,1,2.694-2.084l-.021.515s-2,1.048-1.955,1.87" fill="#790729"/>
            <path id="路径_58" data-name="路径 58" d="M304.931,203.677a5.929,5.929,0,0,1,2.743,2.447l-.689.14a4,4,0,0,0-2.15-2.12" fill="#790729"/>
            <path id="路径_59" data-name="路径 59" d="M281.787,237.728h45.136s-3.254,22.883-12.911,41.672l-19.629-.1S286.17,263.419,281.787,237.728Z" fill="#e1001e"/>
            <path id="路径_60" data-name="路径 60" d="M296.832,247.008a3.885,3.885,0,0,0-2.083-.677c-5.391.943-3.4,15.782-3.4,15.782a23.318,23.318,0,0,0,2.795.237c-.2-1.687-1.452-13.373,2.686-15.342" fill="#790729"/>
            <path id="路径_61" data-name="路径 61" d="M301.451,262.371c.148-10.446-2.6-14.092-4.619-15.363-4.138,1.969-2.889,13.655-2.686,15.342,3.185.128,7.3.021,7.3.021" fill="#5a0013"/>
            <path id="路径_62" data-name="路径 62" d="M313.566,280.5h-19.13l-1.338-3.858,22.24.039Z" fill="#790729"/>
          </g>
        </g>
      </g>
      <path id="路径_64" data-name="路径 64" d="M302.152,270.228s.235-20.372,2.691-20.847c0,0,2.915-.768,4.933,4.389,0,0,4.148,10.094.224,27.65,0,0-1.457.988-2.8-3.95,0,0-1.569-7.242-5.045-7.242" fill="#df372d"/>
    </g>
    <path id="路径_65" data-name="路径 65" d="M288.824,250.407c-1.472.779-2.97-6.74-3.916-13.417-.886-6.246-1.147-16.492.416-15.916.791.291.563,8.172,1.417,15.333S289.533,250.032,288.824,250.407Z" fill="#fff" opacity="0.3"/>
    <ellipse id="椭圆_19" data-name="椭圆 19" cx="1.687" cy="7.438" rx="1.687" ry="7.438" transform="translate(321.741 220.074)" fill="#fff" opacity="0.3"/>
  </g>
</svg>
