<svg xmlns="http://www.w3.org/2000/svg" width="70.599" height="70.598" viewBox="0 0 70.599 70.598">
  <g id="组_191" data-name="组 191" transform="translate(-289.051 -186.258)">
    <g id="组_190" data-name="组 190">
      <g id="组_189" data-name="组 189">
        <path id="路径_201" data-name="路径 201" d="M289.051,221.557a35.3,35.3,0,1,0,35.3-35.3A35.3,35.3,0,0,0,289.051,221.557Z" fill="#fac126"/>
      </g>
      <path id="路径_202" data-name="路径 202" d="M306.23,191.278s-6.5,3.955-9.371,8.125l-.958,3.276-2.78,2.412s-3.034,5.833-3.54,10.741l2.535-.357s-1,12.528,5.528,23.088a29.165,29.165,0,0,1,4.563-21.234,112.861,112.861,0,0,1,25.74,6.788s-14.222-18.069-15.02-21.27a33.935,33.935,0,0,1,20.466-11.125s-14.652-2.205-25.683,2.7Z" fill="#e1001e"/>
    </g>
    <path id="路径_203" data-name="路径 203" d="M312.18,195.759c-6.017,3.34-8.287,10.033-9.874,7.174s2-7.885,8.021-11.225,12.182-3.729,13.769-.869S318.2,192.42,312.18,195.759Z" fill="#fff" opacity="0.3"/>
  </g>
</svg>
